<?xml version="1.0" encoding="UTF-8" standalone="yes"?>
<svg xmlns="http://www.w3.org/2000/svg" viewBox="0 0 30 30" width="30" height="30" fill="#000000">
  <path d="M 9 3 C 7.9069372 3 7 3.9069372 7 5 L 7 12 C 7 13.093063 7.9069372 14 9 14 L 21 14 C 22.093063 14 23 13.093063 23 12 L 23 5 C 23 3.9069372 22.093063 3 21 3 L 9 3 z M 9 5 L 21 5 L 21 12 L 9 12 L 9 5 z M 9 16 C 7.9069372 16 7 16.906937 7 18 L 7 25 C 7 26.093063 7.9069372 27 9 27 L 21 27 C 22.093063 27 23 26.093063 23 25 L 23 18 C 23 16.906937 22.093063 16 21 16 L 9 16 z M 9 18 L 21 18 L 21 25 L 9 25 L 9 18 z"/>
</svg>
